# Blender v2.93.2 OBJ File: ''
# www.blender.org
mtllib snakemiddle.mtl
o Cube_Cube.001
v 5.000000 -1.000000 -1.000000
v 5.000000 -1.000000 1.000000
v -5.000000 -1.000000 -1.000000
v -5.000000 -1.000000 1.000000
v 5.000000 1.000000 -1.000000
v 5.000000 1.000000 1.000000
v -5.000000 1.000000 -1.000000
v -5.000000 1.000000 1.000000
vt 1.000000 -0.000000
vt 1.000000 0.500000
vt -0.000000 0.500000
vt 0.000000 0.000000
vt 0.200000 0.500000
vt 0.000000 0.000000
vt 0.200000 0.000000
vt 1.000000 -0.000000
vt 1.000000 0.500000
vt -0.000000 0.500000
vt 0.000000 0.000000
vt 0.750000 0.750000
vt 1.000000 0.750000
vt 1.000000 1.000000
vt 0.750000 1.000000
vt 1.000000 -0.000000
vt 1.000000 0.500000
vt -0.000000 0.500000
vt 0.000000 0.000000
vt 1.000000 -0.000000
vt 1.000000 0.500000
vt -0.000000 0.500000
vt 0.000000 0.000000
vn 0.0000 -1.0000 0.0000
vn -1.0000 0.0000 0.0000
vn 0.0000 1.0000 0.0000
vn 1.0000 0.0000 0.0000
vn 0.0000 0.0000 -1.0000
vn 0.0000 0.0000 1.0000
usemtl Material.001
s off
f 1/1/1 2/2/1 4/3/1 3/4/1
f 3/5/2 4/3/2 8/6/2 7/7/2
f 7/8/3 8/9/3 6/10/3 5/11/3
f 5/12/4 6/13/4 2/14/4 1/15/4
f 3/16/5 7/17/5 5/18/5 1/19/5
f 8/20/6 4/21/6 2/22/6 6/23/6
